<!DOCTYPE svg PUBLIC "-//W3C//DTD SVG 1.1//EN" "http://www.w3.org/Graphics/SVG/1.1/DTD/svg11.dtd">
<!-- Uploaded to: SVG Repo, www.svgrepo.com, Transformed by: SVG Repo Mixer Tools -->
<svg version="1.1" id="Layer_1" xmlns="http://www.w3.org/2000/svg" xmlns:xlink="http://www.w3.org/1999/xlink" viewBox="-209.92 -209.92 931.84 931.84" xml:space="preserve" width="64px" height="64px" fill="#bf088e" stroke="#bf088e" stroke-width="0.00512">
<g id="SVGRepo_bgCarrier" stroke-width="0" transform="translate(0,0), scale(1)">
<path transform="translate(-209.92, -209.92), scale(58.24)" fill="#7ed0ec" d="M9.166.33a2.25 2.25 0 00-2.332 0l-5.25 3.182A2.25 2.25 0 00.5 5.436v5.128a2.25 2.25 0 001.084 1.924l5.25 3.182a2.25 2.25 0 002.332 0l5.25-3.182a2.25 2.25 0 001.084-1.924V5.436a2.25 2.25 0 00-1.084-1.924L9.166.33z" strokewidth="0"/>
</g>
<g id="SVGRepo_tracerCarrier" stroke-linecap="round" stroke-linejoin="round" stroke="#CCCCCC" stroke-width="102.4"> <rect style="fill:#AED5F3;" width="512" height="512"/> <rect x="51.2" style="fill:#C9E3F7;" width="460.8" height="512"/> <g> <rect y="51.2" style="fill:#5A8BB0;" width="51.2" height="119.467"/> <rect y="341.333" style="fill:#5A8BB0;" width="51.2" height="119.467"/> </g> <rect x="256" style="fill:#AED5F3;" width="256" height="512"/> <rect x="460.8" y="170.667" style="fill:#3C5D76;" width="51.2" height="170.667"/> <polygon style="fill:#FFFFFF;" points="392.533,201.387 310.613,201.387 310.613,119.467 201.387,119.467 201.387,201.387 119.467,201.387 119.467,310.613 201.387,310.613 201.387,392.533 310.613,392.533 310.613,310.613 392.533,310.613 "/> </g>
<g id="SVGRepo_iconCarrier"> <rect style="fill:#AED5F3;" width="512" height="512"/> <rect x="51.2" style="fill:#C9E3F7;" width="460.8" height="512"/> <g> <rect y="51.2" style="fill:#5A8BB0;" width="51.2" height="119.467"/> <rect y="341.333" style="fill:#5A8BB0;" width="51.2" height="119.467"/> </g> <rect x="256" style="fill:#AED5F3;" width="256" height="512"/> <rect x="460.8" y="170.667" style="fill:#3C5D76;" width="51.2" height="170.667"/> <polygon style="fill:#FFFFFF;" points="392.533,201.387 310.613,201.387 310.613,119.467 201.387,119.467 201.387,201.387 119.467,201.387 119.467,310.613 201.387,310.613 201.387,392.533 310.613,392.533 310.613,310.613 392.533,310.613 "/> </g>
</svg>